<svg xmlns="http://www.w3.org/2000/svg" viewBox="0 0 1280 720"><defs><linearGradient id="s" x2="0" y2="1"><stop stop-color="#74cce4"/><stop offset=".55" stop-color="#f3df9e"/><stop offset="1" stop-color="#73a35e"/></linearGradient></defs><rect width="1280" height="720" fill="url(#s)"/><rect y="400" width="1280" height="145" fill="#3e9fb2"/><path d="M0 445c100-16 175 16 260 0s160-18 250 0 180 20 280 0 190-13 490 0" fill="none" stroke="#dff7f4" stroke-width="10" opacity=".7"/><path d="M0 540h1280v180H0z" fill="#b9905c"/><g stroke="#5c4a34" stroke-width="16"><path d="M150 570q20-120 8-218"/><path d="M1080 560q-18-130-2-230"/></g><g fill="#377b4d"><path d="M158 350l-90 25 75 20-88 28 104 5z"/><path d="M1078 330l-90 30 78 17-80 35 95 2z"/></g></svg>
