<svg xmlns="http://www.w3.org/2000/svg" viewBox="0 0 340 170">
<ellipse cx="170" cy="158" rx="148" ry="8" fill="#1c2930" opacity=".14"/>
<path d="M24 145V43h55M316 145V43h-56" fill="none" stroke="#293237" stroke-width="18" stroke-linecap="round" stroke-linejoin="round"/>
<path d="M27 142V46h54M313 142V46h-55" fill="none" stroke="#6e8c93" stroke-width="10" stroke-linecap="round"/>
<path d="M70 49h203" stroke="#293237" stroke-width="28" stroke-linecap="round"/>
<path d="M70 49h203" stroke="#9eb6bb" stroke-width="17" stroke-linecap="round"/>
<path d="M103 64v28M170 64v34M238 64v26" stroke="#293237" stroke-width="7" stroke-linecap="round"/>
<path d="M103 91q-13 18 0 33 13-15 0-33M170 96q-14 19 0 36 14-17 0-36M238 89q-12 17 0 31 12-14 0-31" fill="#5ac6e5" stroke="#293237" stroke-width="5"/>
</svg>